<svg width="210" height="241" viewBox="0 0 210 241" fill="none" xmlns="http://www.w3.org/2000/svg">
<g clip-path="url(#clip0_1_20)">
<rect width="210" height="241" fill="white"/>
<path d="M135.309 125.988C135.278 125.994 135.245 126.002 135.214 126.01C131.612 126.895 128.193 128.757 124.573 129.615C120.996 130.954 122.374 123.746 118.519 125.996C118.103 126.193 117.707 126.73 117.226 126.533C116.734 126.27 115.946 124.238 114.908 124.649C114.409 124.926 114.394 125.694 114.358 126.209C114.312 128.024 113.755 130.357 112.949 132.214C111.708 135.158 109.95 136.954 109.223 137.64C109.22 137.642 109.214 137.648 109.211 137.65C108.55 138.301 107.34 137.948 107.285 137.082C107.276 136.959 107.264 136.826 107.242 136.688C106.686 129.857 105.761 117.398 105.359 113.152C105.25 111.609 106.013 110.32 107.361 109.302C107.379 109.289 107.398 109.273 107.413 109.26C108.666 108.157 109.938 106.831 110.872 105.431C113.457 101.597 114.066 97.8958 114.294 96.1475C114.619 93.7482 112.974 91.511 109.953 92.0955C106.588 92.7359 103.759 95.7436 102.913 98.6504C102.64 99.6308 102.664 100.662 102.956 101.695C103.117 102.24 103.312 102.453 103.412 102.237C103.555 101.964 103.54 100.553 103.665 99.9019C103.78 99.0463 104.103 97.8267 104.422 97.1359C104.435 97.1067 104.453 97.0774 104.468 97.0482C105.563 95.1777 104.243 99.5086 104.31 100.133C103.857 103.26 104.419 106.43 103.543 109.332C102.774 111.54 100.866 112.908 98.7245 114.173C95.2079 116.466 91.5118 118.9 88.0621 121.161C87.1464 110.482 86.2186 99.8089 86.1669 96.5885C86.0421 94.3806 87.5814 93.5649 89.6835 92.3347C90.8608 91.6651 92.8168 90.1878 92.5461 88.9895C92.5065 88.8141 92.3909 88.6547 92.2419 88.5325C90.5596 87.1322 87.259 88.7636 86.3403 90.3153C85.3911 91.7182 85.2421 93.5463 83.5233 94.4682C81.7072 95.6001 78.3244 96.6683 76.5083 97.2023C74.7591 97.8639 72.803 96.8144 73.016 99.2057C73.0555 100.757 73.1437 103.577 73.1955 105.381C73.1863 106.125 73.305 107.182 73.597 107.411L73.6122 107.427C73.9894 107.87 74.3545 106.869 74.3727 106.313C74.534 104.727 74.7865 101.908 74.9264 100.593C74.9446 99.4422 75.6109 99.1419 76.7516 98.6849C77.7251 98.2758 78.9845 97.7284 80.0462 97.2873C81.1657 96.8117 82.2882 96.3361 83.3742 95.8765C84.7949 95.2547 84.3903 95.5789 84.5059 96.174C84.7067 99.5139 85.6467 111.114 86.3463 122.29C85.1599 123.066 84.01 123.815 82.924 124.522C81.4364 125.585 79.5686 126.148 78.3214 127.37C77.4787 128.22 76.6543 129.289 75.8938 130.218C74.5644 131.651 74.3606 133.181 73.9286 134.911C73.6061 136.468 73.1437 137.642 73.2989 139.218C73.4723 143.254 75.0481 147.858 78.5738 150.454C82.8297 153.778 89.5375 151.429 89.8782 146.378C90.0181 144.253 89.1238 133.55 88.1777 122.518C92.8686 119.285 100.069 114.534 103.023 112.541C103.224 112.411 103.345 112.438 103.37 112.637C103.437 113.126 103.571 114.587 103.784 116.609C104.504 123.677 105.919 137.573 106.226 140.584C106.242 141.139 106.588 141.253 107.227 140.958C110.218 139.64 113.038 135.126 113.932 133.625C114.257 133.112 114.4 133.383 114.775 133.635C115.419 134.122 116.32 134.302 116.746 133.439C117.214 132.397 117.233 131.042 118.075 130.118C118.556 129.602 118.979 128.555 119.526 128.22C119.675 128.157 119.821 128.194 119.98 128.335C120.475 128.765 120.968 129.857 121.561 130.396C121.616 130.444 121.674 130.487 121.738 130.524C122.918 131.186 124.74 130.646 125.979 130.396C126.012 130.389 126.045 130.383 126.076 130.373C129.109 129.514 131.953 128.056 134.886 126.913C135.975 126.451 136.802 126.326 136.994 126.071C137.07 125.925 136.437 125.771 135.302 125.986L135.309 125.988ZM110.823 93.6153C112.28 94.346 110.875 98.6451 110.275 100.069C109.7 101.424 107.96 105.049 106.759 105.025L106.743 105.019C105.174 103.911 108.517 93.3682 110.826 93.6153H110.823ZM89.4706 88.5617C90.6418 88.102 89.4706 89.8158 89.1116 90.1984C88.491 90.8813 87.9434 91.5216 87.3198 91.4658L87.2985 91.4578C86.7814 90.8414 88.7648 88.8832 89.4675 88.5617H89.4706ZM87.0643 143.711C86.8665 145.592 86.2125 148.424 84.6367 149.663C84.585 149.702 84.5302 149.74 84.4694 149.771C83.8245 150.109 83.1795 150.005 82.0236 149.705C81.984 149.694 81.9445 149.684 81.908 149.671C69.475 145.26 79.599 128.584 86.4346 123.73C86.9395 132.057 87.2863 139.935 87.0643 143.713V143.711Z" fill="#ED1C24"/>
</g>
<defs>
<clipPath id="clip0_1_20">
<rect width="210" height="241" fill="white"/>
</clipPath>
</defs>
</svg>
