<svg width="210" height="241" viewBox="0 0 210 241" fill="none" xmlns="http://www.w3.org/2000/svg">
<g clip-path="url(#clip0_1_14)">
<rect width="210" height="241" fill="black"/>
<g clip-path="url(#clip1_1_14)">
<path d="M204.823 142.974C204.723 142.994 204.613 143.024 204.513 143.054C192.673 146.384 181.433 153.394 169.533 156.624C157.773 161.664 162.303 134.534 149.633 143.004C148.263 143.744 146.963 145.764 145.383 145.024C143.763 144.034 141.173 136.384 137.763 137.934C136.123 138.974 136.073 141.864 135.953 143.804C135.803 150.634 133.973 159.414 131.323 166.404C127.243 177.484 121.463 184.244 119.073 186.824C119.063 186.834 119.043 186.854 119.033 186.864C116.863 189.314 112.883 187.984 112.703 184.724C112.673 184.264 112.633 183.764 112.563 183.244C110.733 157.534 107.693 110.644 106.373 94.6639C106.013 88.8539 108.523 84.004 112.953 80.174C113.013 80.124 113.073 80.0639 113.123 80.0139C117.243 75.8639 121.423 70.874 124.493 65.604C132.993 51.174 134.993 37.2439 135.743 30.6639C136.813 21.634 131.403 13.2139 121.473 15.4139C110.413 17.824 101.113 29.144 98.3325 40.084C97.4325 43.774 97.5125 47.6539 98.4725 51.5439C99.0025 53.5939 99.6425 54.394 99.9725 53.584C100.443 52.554 100.393 47.2439 100.803 44.7939C101.183 41.5739 102.243 36.9839 103.293 34.3839C103.333 34.2739 103.393 34.164 103.443 34.054C107.043 27.014 102.703 43.3139 102.923 45.6639C101.433 57.4339 103.283 69.364 100.403 80.284C97.8725 88.594 91.6025 93.744 84.5625 98.504C73.0025 107.134 60.8525 116.294 49.5125 124.804C46.5025 84.6139 43.4525 44.444 43.2825 32.324C42.8725 24.014 47.9325 20.9439 54.8425 16.3139C58.7125 13.7939 65.1425 8.23395 64.2525 3.72395C64.1225 3.06395 63.7425 2.46395 63.2525 2.00395C57.7225 -3.26605 46.8725 2.87395 43.8525 8.71395C40.7325 13.994 40.2425 20.874 34.5925 24.344C28.6225 28.604 17.5025 32.6239 11.5325 34.6339C5.78251 37.1239 -0.647494 33.174 0.052506 42.174C0.182506 48.014 0.472506 58.6239 0.642506 65.4139C0.612506 68.2139 1.00251 72.1939 1.96251 73.0539L2.01251 73.114C3.25251 74.784 4.45251 71.014 4.51251 68.924C5.04251 62.954 5.87251 52.344 6.33251 47.394C6.39251 43.064 8.58251 41.934 12.3325 40.214C15.5325 38.674 19.6725 36.6139 23.1625 34.9539C26.8425 33.1639 30.5325 31.3739 34.1025 29.6439C38.7725 27.3039 37.4425 28.524 37.8225 30.764C38.4825 43.334 41.5725 86.994 43.8725 129.054C39.9725 131.974 36.1925 134.794 32.6225 137.454C27.7325 141.454 21.5925 143.574 17.4925 148.174C14.7225 151.374 12.0125 155.394 9.51251 158.894C5.14251 164.284 4.47251 170.044 3.05251 176.554C1.99251 182.414 0.472506 186.834 0.982506 192.764C1.55251 207.954 6.73251 225.284 18.3225 235.054C32.3125 247.564 54.3625 238.724 55.4825 219.714C55.9425 211.714 53.0025 171.434 49.8925 129.914C65.3125 117.744 88.9825 99.864 98.6925 92.364C99.3525 91.874 99.7525 91.974 99.8325 92.724C100.053 94.564 100.493 100.064 101.193 107.674C103.563 134.274 108.213 186.574 109.223 197.904C109.273 199.994 110.413 200.424 112.513 199.314C122.343 194.354 131.613 177.364 134.553 171.714C135.623 169.784 136.093 170.804 137.323 171.754C139.443 173.584 142.403 174.264 143.803 171.014C145.343 167.094 145.403 161.994 148.173 158.514C149.753 156.574 151.143 152.634 152.943 151.374C153.433 151.134 153.913 151.274 154.433 151.804C156.063 153.424 157.683 157.534 159.633 159.564C159.813 159.744 160.003 159.904 160.213 160.044C164.093 162.534 170.083 160.504 174.153 159.564C174.263 159.534 174.373 159.514 174.473 159.474C184.443 156.244 193.793 150.754 203.433 146.454C207.013 144.714 209.733 144.244 210.363 143.284C210.613 142.734 208.533 142.154 204.803 142.964L204.823 142.974ZM124.333 21.1339C129.123 23.8839 124.503 40.064 122.533 45.424C120.643 50.524 114.923 64.164 110.973 64.074L110.923 64.0539C105.763 59.8839 116.753 20.2039 124.343 21.1339H124.333ZM54.1425 2.11395C57.9925 0.38395 54.1425 6.83395 52.9625 8.27395C50.9225 10.8439 49.1225 13.254 47.0725 13.044L47.0025 13.014C45.3025 10.694 51.8225 3.32395 54.1325 2.11395H54.1425ZM46.2325 209.674C45.5825 216.754 43.4325 227.414 38.2525 232.074C38.0825 232.224 37.9025 232.364 37.7025 232.484C35.5825 233.754 33.4625 233.364 29.6625 232.234C29.5325 232.194 29.4025 232.154 29.2825 232.104C-11.5875 215.504 21.6925 152.744 44.1625 134.474C45.8225 165.814 46.9625 195.464 46.2325 209.684V209.674Z" fill="white"/>
</g>
</g>
<defs>
<clipPath id="clip0_1_14">
<rect width="210" height="241" fill="white"/>
</clipPath>
<clipPath id="clip1_1_14">
<rect width="210.41" height="240.87" fill="white"/>
</clipPath>
</defs>
</svg>
