<svg width="210" height="241" viewBox="0 0 210 241" fill="none" xmlns="http://www.w3.org/2000/svg">
<g clip-path="url(#clip0_1_10)">
<rect width="210" height="241" fill="white"/>
<g clip-path="url(#clip1_1_10)">
<path d="M204.83 142.98C204.73 143 204.62 143.03 204.52 143.06C192.68 146.39 181.44 153.4 169.54 156.63C157.78 161.67 162.31 134.54 149.64 143.01C148.27 143.75 146.97 145.77 145.39 145.03C143.77 144.04 141.18 136.39 137.77 137.94C136.13 138.98 136.08 141.87 135.96 143.81C135.81 150.64 133.98 159.42 131.33 166.41C127.25 177.49 121.47 184.25 119.08 186.83C119.07 186.84 119.05 186.86 119.04 186.87C116.87 189.32 112.89 187.99 112.71 184.73C112.68 184.27 112.64 183.77 112.57 183.25C110.74 157.54 107.7 110.65 106.38 94.67C106.02 88.86 108.53 84.01 112.96 80.18C113.02 80.13 113.08 80.07 113.13 80.02C117.25 75.87 121.43 70.88 124.5 65.61C133 51.18 135 37.25 135.75 30.67C136.82 21.64 131.41 13.22 121.48 15.42C110.42 17.83 101.12 29.15 98.34 40.09C97.44 43.78 97.52 47.66 98.48 51.55C99.01 53.6 99.65 54.4 99.98 53.59C100.45 52.56 100.4 47.25 100.81 44.8C101.19 41.58 102.25 36.99 103.3 34.39C103.34 34.28 103.4 34.17 103.45 34.06C107.05 27.02 102.71 43.32 102.93 45.67C101.44 57.44 103.29 69.37 100.41 80.29C97.88 88.6 91.61 93.75 84.57 98.51C73.01 107.14 60.86 116.3 49.52 124.81C46.51 84.62 43.46 44.45 43.29 32.33C42.88 24.02 47.94 20.95 54.85 16.32C58.72 13.8 65.15 8.24 64.26 3.73C64.13 3.07 63.75 2.47 63.26 2.01C57.73 -3.26 46.88 2.88 43.86 8.72C40.74 14 40.25 20.88 34.6 24.35C28.63 28.61 17.51 32.63 11.54 34.64C5.79 37.13 -0.640002 33.18 0.0599981 42.18C0.189998 48.02 0.479998 58.63 0.649998 65.42C0.619998 68.22 1.01 72.2 1.97 73.06L2.02 73.12C3.26 74.79 4.46 71.02 4.52 68.93C5.05 62.96 5.88 52.35 6.34 47.4C6.4 43.07 8.59 41.94 12.34 40.22C15.54 38.68 19.68 36.62 23.17 34.96C26.85 33.17 30.54 31.38 34.11 29.65C38.78 27.31 37.45 28.53 37.83 30.77C38.49 43.34 41.58 87 43.88 129.06C39.98 131.98 36.2 134.8 32.63 137.46C27.74 141.46 21.6 143.58 17.5 148.18C14.73 151.38 12.02 155.4 9.52 158.9C5.15 164.29 4.48 170.05 3.06 176.56C2 182.42 0.479998 186.84 0.989998 192.77C1.56 207.96 6.74 225.29 18.33 235.06C32.32 247.57 54.37 238.73 55.49 219.72C55.95 211.72 53.01 171.44 49.9 129.92C65.32 117.75 88.99 99.87 98.7 92.37C99.36 91.88 99.76 91.98 99.84 92.73C100.06 94.57 100.5 100.07 101.2 107.68C103.57 134.28 108.22 186.58 109.23 197.91C109.28 200 110.42 200.43 112.52 199.32C122.35 194.36 131.62 177.37 134.56 171.72C135.63 169.79 136.1 170.81 137.33 171.76C139.45 173.59 142.41 174.27 143.81 171.02C145.35 167.1 145.41 162 148.18 158.52C149.76 156.58 151.15 152.64 152.95 151.38C153.44 151.14 153.92 151.28 154.44 151.81C156.07 153.43 157.69 157.54 159.64 159.57C159.82 159.75 160.01 159.91 160.22 160.05C164.1 162.54 170.09 160.51 174.16 159.57C174.27 159.54 174.38 159.52 174.48 159.48C184.45 156.25 193.8 150.76 203.44 146.46C207.02 144.72 209.74 144.25 210.37 143.29C210.62 142.74 208.54 142.16 204.81 142.97L204.83 142.98ZM124.34 21.14C129.13 23.89 124.51 40.07 122.54 45.43C120.65 50.53 114.93 64.17 110.98 64.08L110.93 64.06C105.77 59.89 116.76 20.21 124.35 21.14H124.34ZM54.15 2.12C58 0.39 54.15 6.84 52.97 8.28C50.93 10.85 49.13 13.26 47.08 13.05L47.01 13.02C45.31 10.7 51.83 3.33 54.14 2.12H54.15ZM46.24 209.68C45.59 216.76 43.44 227.42 38.26 232.08C38.09 232.23 37.91 232.37 37.71 232.49C35.59 233.76 33.47 233.37 29.67 232.24C29.54 232.2 29.41 232.16 29.29 232.11C-11.58 215.51 21.7 152.75 44.17 134.48C45.83 165.82 46.97 195.47 46.24 209.69V209.68Z" fill="black"/>
</g>
</g>
<defs>
<clipPath id="clip0_1_10">
<rect width="210" height="241" fill="white"/>
</clipPath>
<clipPath id="clip1_1_10">
<rect width="210.41" height="240.87" fill="white"/>
</clipPath>
</defs>
</svg>
